#N canvas -8 -8 1366 685 12;
#X declare -path else;
#X obj 401 1 cnv 15 198 198 empty cnv2 Multi-Osc 0 12 0 25 -233017
-66577 0;
#X obj 407 100 vsl 15 30 500 5000 0 0 \$0-multioscdecay empty Multi_Oscillator_Decay_Time
0 -9 0 10 -262144 -1 -1 0 1;
#X obj 408 42 vsl 15 30 0 100 0 0 \$0-chord1likelihood empty Chord_One_Likelihood
0 -9 0 10 -262144 -1 -1 0 1;
#X obj 476 52 vsl 15 30 0 100 0 0 \$0-chord2likelihood empty Chord_Two_Likelihood
0 -9 0 10 -262144 -1 -1 0 1;
#X obj 412 161 hsl 128 15 0 1 0 0 \$0-multioscvolume empty Volume -2
-7 0 10 -262144 -1 -1 0 1;
#X floatatom 110 134 5 0 0 0 - - -;
#X floatatom 150 134 5 0 0 0 - - -;
#X obj 110 110 unpack f f;
#X obj 110 66 hradio 15 1 0 4 empty empty empty 0 -8 0 10 -262144 -1
-1 0;
#N canvas -8 -8 1366 685 melodies 0;
#X obj 151 40 inlet;
#N canvas -8 -8 1366 685 two_notes 0;
#X obj 22 307 outlet;
#X obj 22 39 inlet;
#X obj 22 87 tgl 15 0 empty empty empty 17 7 0 10 -262144 -1 -1 0 1
;
#X obj 22 111 sel 0 1;
#X msg 22 135 55;
#X msg 78 136 67;
#X obj 141 112 sel 0 1;
#X msg 174 136 60;
#X msg 141 136 50;
#X obj 81 236 poly 16 1;
#X obj 81 260 - 1;
#X obj 81 286 pack f f f;
#X obj 81 310 outlet;
#X obj 22 63 metro 200;
#X obj 87 40 inlet;
#X obj 22 185 pack;
#X connect 1 0 13 0;
#X connect 2 0 6 0;
#X connect 2 0 3 0;
#X connect 3 0 4 0;
#X connect 3 1 5 0;
#X connect 4 0 15 0;
#X connect 5 0 15 0;
#X connect 6 0 8 0;
#X connect 6 1 7 0;
#X connect 7 0 15 1;
#X connect 8 0 15 1;
#X connect 9 0 10 0;
#X connect 9 1 11 1;
#X connect 9 2 11 2;
#X connect 10 0 11 0;
#X connect 11 0 12 0;
#X connect 13 0 2 0;
#X connect 14 0 13 1;
#X connect 15 0 0 0;
#X connect 15 0 9 0;
#X restore 41 341 pd two_notes;
#X obj 41 247 tgl 15 0 empty empty empty 17 7 0 10 -262144 -1 -1 0
1;
#X obj 134 256 tgl 15 0 empty empty empty 17 7 0 10 -262144 -1 -1 0
1;
#X msg 64 249 0;
#X msg 155 253 0;
#N canvas -8 -8 1366 685 many_notes 0;
#X obj 37 37 inlet;
#X obj 37 115 i;
#X obj 37 139 + 1;
#X obj 37 163 % 6;
#X obj 37 91 metro 200;
#X obj 369 56 metro 2000;
#X obj 369 80 random 4;
#X obj 369 104 sel 0 1 2 3;
#X obj 37 61 t f f b;
#X obj 369 29 pipe 8000;
#X obj 118 35 tgl 15 0 empty empty empty 17 7 0 10 -262144 -1 -1 0
1;
#X obj 37 282 pack;
#X obj 60 235 - 18;
#X obj 139 324 poly 16 1;
#X obj 139 348 - 1;
#X obj 139 372 pack f f f;
#X obj 139 396 outlet;
#X obj 37 399 outlet;
#X obj 112 62 inlet;
#X obj 161 67 table testnotes;
#X obj 162 90 table testvelocities;
#X obj 37 189 tabread testnotes;
#X msg 222 132 \; testnotes 0 58 55 58 56 79 70 \; testvelocities 0
80 64 70 75 64 70;
#X msg 490 132 \; testnotes 0 72 75 58 56 79 60 \; testvelocities 0
80 64 70 75 64 70;
#X msg 370 186 \; testnotes 0 60 62 63 65 63 62 \; testvelocities 0
80 64 70 75 64 70;
#X msg 196 242 \; testnotes 0 60 67 62 68 70 \; testvelocities 0 80
64 70 75 64;
#X obj 66 213 tabread testvelocities;
#X connect 0 0 8 0;
#X connect 1 0 2 0;
#X connect 2 0 3 0;
#X connect 2 0 1 1;
#X connect 3 0 21 0;
#X connect 3 0 26 0;
#X connect 4 0 1 0;
#X connect 5 0 6 0;
#X connect 6 0 7 0;
#X connect 7 0 25 0;
#X connect 7 1 22 0;
#X connect 7 2 24 0;
#X connect 7 3 23 0;
#X connect 8 0 4 0;
#X connect 8 1 9 0;
#X connect 8 2 25 0;
#X connect 9 0 5 0;
#X connect 10 0 8 0;
#X connect 11 0 13 0;
#X connect 11 0 17 0;
#X connect 12 0 11 1;
#X connect 13 0 14 0;
#X connect 13 1 15 1;
#X connect 13 2 15 2;
#X connect 14 0 15 0;
#X connect 15 0 16 0;
#X connect 18 0 4 1;
#X connect 21 0 11 0;
#X connect 26 0 12 0;
#X restore 134 340 pd many_notes;
#N canvas -8 -8 1366 685 test_notes 0;
#X obj 37 37 inlet;
#X msg 42 169 48;
#X msg 77 169 62;
#X msg 110 168 58;
#X msg 142 170 51;
#X obj 109 30 inlet;
#X obj 36 91 random 8;
#X obj 37 115 sel 0 1 2 3 4 5 6 7;
#X msg 208 170 72;
#X msg 249 169 24;
#X obj 299 95 random 8;
#X obj 300 119 sel 0 1 2 3 4 5 6 7;
#X msg 294 172 48;
#X msg 329 172 62;
#X msg 362 171 58;
#X msg 394 173 51;
#X msg 460 173 64;
#X msg 427 173 55;
#X msg 501 172 45;
#X msg 540 172 40;
#X obj 139 324 poly 16 1;
#X obj 139 348 - 1;
#X obj 139 372 pack f f f;
#X obj 139 396 outlet;
#X obj 42 397 outlet;
#X obj 42 230 pack f f;
#X obj 36 70 metro;
#X connect 0 0 26 0;
#X connect 1 0 25 0;
#X connect 2 0 25 0;
#X connect 3 0 25 0;
#X connect 4 0 25 0;
#X connect 5 0 26 1;
#X connect 6 0 7 0;
#X connect 7 0 1 0;
#X connect 7 1 2 0;
#X connect 7 2 3 0;
#X connect 7 3 4 0;
#X connect 7 4 1 0;
#X connect 7 5 8 0;
#X connect 7 6 9 0;
#X connect 8 0 25 0;
#X connect 9 0 25 0;
#X connect 10 0 11 0;
#X connect 11 0 12 0;
#X connect 11 1 13 0;
#X connect 11 2 14 0;
#X connect 11 3 15 0;
#X connect 11 4 17 0;
#X connect 11 5 16 0;
#X connect 11 6 18 0;
#X connect 11 7 19 0;
#X connect 12 0 25 1;
#X connect 13 0 25 1;
#X connect 14 0 25 1;
#X connect 15 0 25 1;
#X connect 16 0 25 1;
#X connect 17 0 25 1;
#X connect 18 0 25 1;
#X connect 19 0 25 1;
#X connect 20 0 21 0;
#X connect 20 1 22 1;
#X connect 20 2 22 2;
#X connect 21 0 22 0;
#X connect 22 0 23 0;
#X connect 25 0 24 0;
#X connect 25 0 20 0;
#X connect 26 0 6 0;
#X connect 26 0 10 0;
#X restore 233 339 pd test_notes;
#X obj 233 253 tgl 15 0 empty empty empty 17 7 0 10 -262144 -1 -1 0
1;
#X msg 254 250 0;
#X obj 263 197 t f b;
#X obj 351 206 sel 1 2 3;
#X msg 454 174 1250;
#X obj 407 178 pipe;
#X msg 430 146 250;
#X obj 226 165 t f b;
#X obj 151 77 sel 0 1 2 3;
#X obj 275 145 t f b;
#X msg 179 109 1;
#X msg 217 117 2;
#X msg 249 109 3;
#X obj 134 449 outlet;
#X obj 178 286 inlet;
#X connect 0 0 16 0;
#X connect 1 0 21 0;
#X connect 2 0 1 0;
#X connect 3 0 6 0;
#X connect 4 0 2 0;
#X connect 5 0 3 0;
#X connect 6 0 21 0;
#X connect 7 0 21 0;
#X connect 8 0 7 0;
#X connect 9 0 8 0;
#X connect 10 0 13 0;
#X connect 10 1 4 0;
#X connect 10 1 5 0;
#X connect 10 1 9 0;
#X connect 11 0 2 0;
#X connect 11 1 3 0;
#X connect 11 2 8 0;
#X connect 12 0 13 1;
#X connect 13 0 11 0;
#X connect 14 0 13 1;
#X connect 15 0 10 0;
#X connect 15 1 14 0;
#X connect 16 0 4 0;
#X connect 16 0 5 0;
#X connect 16 0 9 0;
#X connect 16 1 18 0;
#X connect 16 2 19 0;
#X connect 16 3 20 0;
#X connect 17 0 10 0;
#X connect 17 1 12 0;
#X connect 18 0 15 0;
#X connect 19 0 17 0;
#X connect 20 0 17 0;
#X connect 22 0 1 1;
#X connect 22 0 7 1;
#X connect 22 0 6 1;
#X restore 110 86 pd melodies;
#X obj 209 40 vsl 15 128 175 300 0 0 empty empty empty 0 -9 0 10 -262144
-1 -1 0 1;
#X obj 472 116 vsl 15 30 0 100 0 0 \$0-chord1likelihood empty Wah-Wah_Likelihood
0 -9 0 10 -262144 -1 -1 0 1;
#X obj 401 210 cnv 15 648 389 empty empty Pattern_Generator 0 12 0
14 -233017 -66577 0;
#X obj 1072 491 tgl 15 0 empty empty empty 17 7 0 10 -262144 -1 -1
0 1;
#X obj 1072 515 metro;
#X obj 1072 539 f;
#X obj 1104 539 + 1;
#X obj 1104 567 mod;
#X floatatom 966 650 5 0 0 0 - - -;
#X floatatom 1115 515 5 0 0 0 - - -;
#X floatatom 639 476 5 0 100 2 Enter_Velocities_(Hz): - -;
#X obj 644 546 bng 15 250 50 0 empty empty Finish_Velocity_Pattern
0 -6 0 10 -262144 -1 -1;
#X obj 667 559 bng 15 250 50 0 empty empty Reset_Velocity_Pattern 0
-8 0 10 -262144 -1 -1;
#X floatatom 855 477 5 0 7 2 Enter_Notes_(Scale_Degrees): - -;
#X obj 855 542 bng 15 250 50 0 empty empty Finish_Notes_Pattern 0 -6
0 10 -262144 -1 -1;
#X obj 878 554 bng 15 250 50 0 empty empty Reset_Notes_Pattern 0 -8
0 10 -262144 -1 -1;
#X obj 165 533 loadbang;
#X obj 165 557 t b b b b;
#X msg 262 605 \; pd dsp 1 \;;
#N canvas -8 -8 1366 685 durationpatterns 0;
#X msg 189 276 add2 \$1;
#X msg 448 209 set;
#X msg 163 345 addsemi;
#X msg 319 354 add2 0;
#X msg 42 256 add2 \$1;
#X obj 460 322 t a a;
#X msg 262 255;
#X obj 19 156 t b f f;
#X msg 579 345 enter values above;
#X obj 163 71 inlet;
#X obj 342 102 inlet;
#X obj 19 11 inlet;
#X obj 406 507 outlet;
#X obj 19 103 spigot 1;
#X msg 88 108 0;
#X msg 86 81 1;
#X obj 163 208 t b b;
#X obj 19 57 t f b;
#X obj 77 33 f;
#X obj 107 33 + 1;
#X msg 94 8 0;
#X obj 342 232 t b b b b b b b;
#X msg 388 350 adddollsym 0-MOdurations;
#X obj 114 58 sel 11;
#X obj 202 443 f \$0;
#X msg 189 481 0;
#X obj 176 413 t a b;
#X obj 189 505 send \$1-MOdurations;
#X obj 160 33 s \$1-MOmod;
#X connect 0 0 25 0;
#X connect 1 0 5 0;
#X connect 2 0 26 0;
#X connect 3 0 25 0;
#X connect 4 0 6 0;
#X connect 5 0 6 0;
#X connect 5 1 25 0;
#X connect 6 0 12 0;
#X connect 7 0 6 0;
#X connect 7 1 4 0;
#X connect 7 2 0 0;
#X connect 8 0 12 0;
#X connect 9 0 16 0;
#X connect 10 0 21 0;
#X connect 11 0 17 0;
#X connect 13 0 7 0;
#X connect 14 0 13 1;
#X connect 15 0 13 1;
#X connect 16 0 2 0;
#X connect 16 1 14 0;
#X connect 17 0 13 0;
#X connect 17 1 18 0;
#X connect 18 0 19 0;
#X connect 19 0 18 1;
#X connect 19 0 23 0;
#X connect 19 0 28 0;
#X connect 20 0 18 1;
#X connect 21 0 3 0;
#X connect 21 1 22 0;
#X connect 21 2 2 0;
#X connect 21 3 1 0;
#X connect 21 4 8 0;
#X connect 21 5 15 0;
#X connect 21 6 20 0;
#X connect 23 0 14 0;
#X connect 24 0 25 0;
#X connect 25 0 27 0;
#X connect 26 1 24 0;
#X restore 330 653 pd durationpatterns;
#X floatatom 587 169 5 0 60 2 Enter_Durations_(Seconds): - -;
#X obj 410 547 bng 15 250 50 0 empty empty Finish_Duration_Pattern
0 -6 0 10 -262144 -1 -1;
#X obj 434 563 bng 15 250 50 0 empty empty Reset_Duration_Pattern 0
-8 0 10 -262144 -1 -1;
#N canvas -8 -8 1366 685 velocitypatterns 0;
#X msg 189 276 add2 \$1;
#X msg 448 209 set;
#X msg 163 345 addsemi;
#X msg 319 354 add2 0;
#X msg 42 256 add2 \$1;
#X obj 460 322 t a a;
#X msg 262 255;
#X obj 19 156 t b f f;
#X msg 579 345 enter values above;
#X obj 163 71 inlet;
#X obj 342 102 inlet;
#X obj 19 11 inlet;
#X obj 406 507 outlet;
#X obj 19 103 spigot 1;
#X msg 88 108 0;
#X msg 86 81 1;
#X obj 163 208 t b b;
#X obj 19 57 t f b;
#X obj 77 33 f;
#X obj 107 33 + 1;
#X msg 94 8 0;
#X obj 342 232 t b b b b b b b;
#X obj 176 413 t a b;
#X msg 386 350 adddollsym 0-MOvelocity;
#X obj 114 58 sel 11;
#X obj 189 535 send \$1-MOvelocity;
#X msg 189 481 0;
#X connect 0 0 26 0;
#X connect 1 0 5 0;
#X connect 2 0 22 0;
#X connect 3 0 26 0;
#X connect 4 0 6 0;
#X connect 5 0 6 0;
#X connect 5 1 26 0;
#X connect 6 0 12 0;
#X connect 7 0 6 0;
#X connect 7 1 4 0;
#X connect 7 2 0 0;
#X connect 8 0 12 0;
#X connect 9 0 16 0;
#X connect 10 0 21 0;
#X connect 11 0 17 0;
#X connect 13 0 7 0;
#X connect 14 0 13 1;
#X connect 15 0 13 1;
#X connect 16 0 2 0;
#X connect 16 1 14 0;
#X connect 17 0 13 0;
#X connect 17 1 18 0;
#X connect 18 0 19 0;
#X connect 19 0 18 1;
#X connect 19 0 24 0;
#X connect 20 0 18 1;
#X connect 21 0 3 0;
#X connect 21 1 23 0;
#X connect 21 2 2 0;
#X connect 21 3 1 0;
#X connect 21 4 8 0;
#X connect 21 5 15 0;
#X connect 21 6 20 0;
#X connect 22 1 26 0;
#X connect 24 0 14 0;
#X connect 26 0 25 0;
#X restore 554 633 pd velocitypatterns;
#N canvas -8 -8 1366 685 notepatterns 0;
#X msg 189 276 add2 \$1;
#X msg 448 209 set;
#X msg 163 345 addsemi;
#X msg 319 354 add2 0;
#X obj 460 322 t a a;
#X msg 579 345 enter values above;
#X obj 163 71 inlet;
#X obj 342 102 inlet;
#X obj 19 11 inlet;
#X obj 406 507 outlet;
#X obj 19 103 spigot 1;
#X msg 88 108 0;
#X msg 86 81 1;
#X obj 163 208 t b b;
#X obj 19 57 t f b;
#X obj 77 33 f;
#X obj 107 33 + 1;
#X msg 94 8 0;
#X obj 342 232 t b b b b b b b;
#X msg 262 255;
#X obj 176 413 t a b;
#X obj 19 156 t b f f;
#X msg 42 251 add2 \$1;
#X msg 387 350 adddollsym 0-MOnotes;
#X obj 114 58 sel 11;
#X obj 189 519 send \$1-MOnotes;
#X msg 189 481 0;
#X connect 0 0 26 0;
#X connect 1 0 4 0;
#X connect 2 0 20 0;
#X connect 3 0 26 0;
#X connect 4 0 19 0;
#X connect 4 1 26 0;
#X connect 5 0 9 0;
#X connect 6 0 13 0;
#X connect 7 0 18 0;
#X connect 8 0 14 0;
#X connect 10 0 21 0;
#X connect 11 0 10 1;
#X connect 12 0 10 1;
#X connect 13 0 2 0;
#X connect 13 1 11 0;
#X connect 14 0 10 0;
#X connect 14 1 15 0;
#X connect 15 0 16 0;
#X connect 16 0 15 1;
#X connect 16 0 24 0;
#X connect 17 0 15 1;
#X connect 18 0 3 0;
#X connect 18 1 23 0;
#X connect 18 2 2 0;
#X connect 18 3 1 0;
#X connect 18 4 5 0;
#X connect 18 5 12 0;
#X connect 18 6 17 0;
#X connect 19 0 9 0;
#X connect 20 1 26 0;
#X connect 21 0 19 0;
#X connect 21 1 22 0;
#X connect 21 2 0 0;
#X connect 22 0 19 0;
#X connect 24 0 11 0;
#X connect 26 0 25 0;
#X restore 804 639 pd notepatterns;
#X text 459 478 (limit on 10 numbers);
#X text 678 478 (limit on 10 numbers);
#X text 894 478 (limit on 10 numbers);
#X text 405 243 Harmony Modulator:;
#X text 404 283 Root Modulator:;
#X obj 557 286 tgl 15 0 empty empty a 0 -7 0 10 -262144 -1 -1 0 1;
#X obj 696 286 tgl 15 0 empty empty b 0 -7 0 10 -262144 -1 -1 0 1;
#X obj 846 286 tgl 15 0 empty empty c 0 -7 0 10 -262144 -1 -1 0 1;
#X obj 557 356 tgl 15 0 empty empty C 0 -7 0 10 -262144 -1 -1 0 1;
#X obj 696 356 tgl 15 0 empty empty E 0 -7 0 10 -262144 -1 -1 0 1;
#X obj 846 356 tgl 15 0 empty empty G 0 -7 0 10 -262144 -1 -1 0 1;
#X obj 927 356 tgl 15 0 empty empty A 0 -7 0 10 -262144 -1 -1 0 1;
#X obj 997 356 tgl 15 0 empty empty B 0 -7 0 10 -262144 -1 -1 0 1;
#X obj 617 356 tgl 15 0 empty empty D 0 -7 0 10 -262144 -1 -1 0 1;
#X obj 767 356 tgl 15 0 empty empty F 0 -7 0 10 -262144 -1 -1 0 1;
#X text 404 340 Tonal Centre:;
#X obj 585 332 tgl 15 0 empty empty Db/C$ 0 -7 0 10 -262144 -1 -1 0
1;
#X obj 655 332 tgl 15 0 empty empty Eb/D$ 0 -7 0 10 -262144 -1 -1 0
1;
#X obj 805 332 tgl 15 0 empty empty Gb/F$ 0 -7 0 10 -262144 -1 -1 0
1;
#X obj 885 332 tgl 15 0 empty empty Ab/G$ 0 -7 0 10 -262144 -1 -1 0
1;
#X obj 971 332 tgl 15 0 empty empty Bb/A$ 0 -7 0 10 -262144 -1 -1 0
1;
#X text 405 409 Octave Modulator:;
#X obj 580 411 tgl 15 0 empty empty -5 0 -5 0 10 -262144 -1 -1 0 -1
;
#X obj 620 411 tgl 15 0 empty empty -4 0 -5 0 10 -262144 -1 -1 0 -1
;
#X obj 660 411 tgl 15 0 empty empty -3 0 -5 0 10 -262144 -1 -1 0 -1
;
#X obj 700 411 tgl 15 0 50 0 -2 0 -5 0 10 -262144 -1 -1 0 -1;
#X obj 740 411 tgl 15 0 50 0 -1 0 -5 0 10 -262144 -1 -1 0 -1;
#X obj 780 411 tgl 15 0 50 0 0 0 -5 0 10 -262144 -1 -1 0 -1;
#X obj 820 411 tgl 15 0 50 0 1 0 -5 0 10 -262144 -1 -1 0 -1;
#X obj 860 411 tgl 15 0 50 0 2 0 -5 0 10 -262144 -1 -1 0 -1;
#X obj 900 411 tgl 15 0 50 0 3 0 -5 0 10 -262144 -1 -1 0 -1;
#X obj 940 411 tgl 15 0 50 0 4 0 -5 0 10 -262144 -1 -1 0 -1;
#X obj 977 411 tgl 15 0 50 0 5 0 -5 0 10 -262144 -1 -1 0 -1;
#X obj 927 286 tgl 15 0 empty empty g 0 -7 0 10 -262144 -1 -1 0 1;
#X obj 767 286 tgl 15 0 empty empty f 0 -7 0 10 -262144 -1 -1 0 1;
#X obj 617 286 tgl 15 0 empty empty e 0 -7 0 10 -262144 -1 -1 0 1;
#X obj 997 286 tgl 15 0 empty empty d 0 -7 0 10 -262144 -1 -1 0 1;
#X obj 582 241 tgl 15 0 \$0-b2 \$0-b20 b2 0 -7 0 10 -262144 -1 -1 0
1;
#X obj 662 241 tgl 15 0 \$0-b3 empty b3 0 -7 0 10 -262144 -1 -1 0 1
;
#X obj 797 241 tgl 15 0 \$0-s4 empty s4 0 -7 0 10 -262144 -1 -1 0 1
;
#X obj 877 241 tgl 15 0 \$0-s5 \$0-s50 s5 0 -7 0 10 -262144 -1 -1 0
1;
#X obj 959 241 tgl 15 0 \$0-s6 \$0-s60 s6 0 -7 0 10 -262144 -1 -1 0
1;
#X obj 641 240 tgl 15 0 \$0-s2 \$0-s20 s2 0 -7 0 10 -262144 -1 -1 0
1;
#X obj 817 241 tgl 15 0 \$0-b5 \$0-b50 b5 0 -7 0 10 -262144 -1 -1 0
1;
#X obj 898 241 tgl 15 0 \$0-b6 \$0-b60 b6 0 -7 0 10 -262144 -1 -1 0
1;
#X obj 980 241 tgl 15 0 \$0-b7 \$0-b70 b7 0 -7 0 10 -262144 -1 -1 0
1;
#X obj 1032 259 tgl 15 0 \$0-s7 \$0-s70 s7 0 -7 0 10 -262144 -1 -1
0 1;
#N canvas -8 -8 1366 685 tonalcentre 0;
#X obj 156 130 sel 1;
#X msg 156 154 0;
#X obj 205 56 sel 1;
#X msg 173 55 1;
#X obj 224 152 sel 1;
#X msg 191 152 2;
#X obj 205 22 inlet;
#X obj 156 97 inlet;
#X obj 224 118 inlet;
#X obj 295 56 sel 1;
#X obj 314 172 sel 1;
#X obj 295 22 inlet;
#X obj 314 138 inlet;
#X msg 263 55 3;
#X msg 281 172 4;
#X obj 375 56 sel 1;
#X obj 394 202 sel 1;
#X obj 375 22 inlet;
#X obj 394 168 inlet;
#X msg 343 55 5;
#X msg 361 202 6;
#X obj 455 56 sel 1;
#X obj 474 230 sel 1;
#X obj 455 22 inlet;
#X obj 474 196 inlet;
#X obj 535 56 sel 1;
#X obj 554 260 sel 1;
#X obj 535 22 inlet;
#X obj 554 226 inlet;
#X msg 423 55 7;
#X msg 441 230 8;
#X msg 503 55 9;
#X msg 521 260 10;
#X obj 615 56 sel 1;
#X obj 615 22 inlet;
#X msg 583 55 11;
#X obj 29 282 s \$0-tonalcentre;
#X connect 0 0 1 0;
#X connect 1 0 36 0;
#X connect 2 0 3 0;
#X connect 3 0 36 0;
#X connect 4 0 5 0;
#X connect 5 0 36 0;
#X connect 6 0 2 0;
#X connect 7 0 0 0;
#X connect 8 0 4 0;
#X connect 9 0 13 0;
#X connect 10 0 14 0;
#X connect 11 0 9 0;
#X connect 12 0 10 0;
#X connect 13 0 36 0;
#X connect 14 0 36 0;
#X connect 15 0 19 0;
#X connect 16 0 20 0;
#X connect 17 0 15 0;
#X connect 18 0 16 0;
#X connect 19 0 36 0;
#X connect 20 0 36 0;
#X connect 21 0 29 0;
#X connect 22 0 30 0;
#X connect 23 0 21 0;
#X connect 24 0 22 0;
#X connect 25 0 31 0;
#X connect 26 0 32 0;
#X connect 27 0 25 0;
#X connect 28 0 26 0;
#X connect 29 0 36 0;
#X connect 30 0 36 0;
#X connect 31 0 36 0;
#X connect 32 0 36 0;
#X connect 33 0 35 0;
#X connect 34 0 33 0;
#X connect 35 0 36 0;
#X restore 557 379 pd tonalcentre;
#X f 65;
#N canvas -8 -8 1366 685 octaves 0;
#X obj 156 130 sel 1;
#X msg 156 154 0;
#X obj 205 56 sel 1;
#X msg 173 55 1;
#X obj 224 152 sel 1;
#X msg 191 152 2;
#X obj 295 56 sel 1;
#X obj 314 172 sel 1;
#X msg 263 55 3;
#X msg 281 172 4;
#X obj 375 56 sel 1;
#X obj 394 202 sel 1;
#X msg 343 55 5;
#X msg 361 202 6;
#X obj 455 56 sel 1;
#X obj 474 230 sel 1;
#X obj 535 56 sel 1;
#X obj 554 260 sel 1;
#X msg 423 55 7;
#X msg 441 230 8;
#X msg 503 55 9;
#X msg 521 260 10;
#X obj 28 282 s \$0-octaves;
#X floatatom 521 284 5 0 0 0 - - -;
#X obj 156 103 inlet;
#X obj 205 31 inlet;
#X obj 224 122 inlet;
#X obj 295 29 inlet;
#X obj 314 147 inlet;
#X obj 375 28 inlet;
#X obj 394 175 inlet;
#X obj 455 28 inlet;
#X obj 474 204 inlet;
#X obj 535 29 inlet;
#X obj 554 235 inlet;
#X connect 0 0 1 0;
#X connect 1 0 22 0;
#X connect 2 0 3 0;
#X connect 3 0 22 0;
#X connect 4 0 5 0;
#X connect 5 0 22 0;
#X connect 6 0 8 0;
#X connect 7 0 9 0;
#X connect 8 0 22 0;
#X connect 9 0 22 0;
#X connect 10 0 12 0;
#X connect 11 0 13 0;
#X connect 12 0 22 0;
#X connect 13 0 22 0;
#X connect 14 0 18 0;
#X connect 15 0 19 0;
#X connect 16 0 20 0;
#X connect 17 0 21 0;
#X connect 18 0 22 0;
#X connect 19 0 22 0;
#X connect 20 0 22 0;
#X connect 21 0 22 0;
#X connect 21 0 23 0;
#X connect 24 0 0 0;
#X connect 25 0 2 0;
#X connect 26 0 4 0;
#X connect 27 0 6 0;
#X connect 28 0 7 0;
#X connect 29 0 10 0;
#X connect 30 0 11 0;
#X connect 31 0 14 0;
#X connect 32 0 15 0;
#X connect 33 0 16 0;
#X connect 34 0 17 0;
#X restore 580 437 pd octaves;
#X f 62;
#N canvas -8 -8 1366 685 harmonydeterminer 0;
#X obj 405 198 tgl 15 0 empty \$0-b2 b2 0 -7 0 10 -262144 -1 -1 0 1
;
#X text 104 290 Harmony Modulator:;
#X obj 522 713 + 60;
#X obj 23 257 hradio 15 1 0 7 empty empty empty 0 -8 0 10 -262144 -1
-1 1;
#X obj 522 676 *;
#X obj 563 610 t b f;
#X obj 563 562 hradio 15 1 0 11 empty empty empty 0 -8 0 10 -262144
-1 -1 10;
#X msg 512 648 12;
#X obj 563 582 - 5;
#X obj 23 287 * 2;
#X obj 23 313 expr if($f1 == 6 \, 5 \, $f1);
#X obj 23 337 expr if($f1 >= 8 \, $f1-1 \, $f1);
#X text 741 561 octave;
#X obj 543 456 hradio 15 1 0 12 empty empty empty 0 -8 0 12 -262144
-1 -1 0;
#X obj 398 667 +;
#X text 728 454 tonal centre;
#X obj 23 403 expr if($f1 == 2 \, $f1-$f2 \, $f1);
#X obj 446 197 tgl 15 0 empty \$0-s2 s2 0 -7 0 10 -262144 -1 -1 0 1
;
#X obj 23 433 expr if($f1 == 2 \, $f1+$f2 \, $f1);
#X obj 379 99 sel 1;
#X msg 379 124 0;
#X obj 316 126 sel 1;
#X msg 316 151 0;
#X text 32 203 do re me fa so la ti;
#X text 35 224 0__2__4__5__7__9__11;
#X text 252 406 0__1__4__5__7__9__11;
#X text 244 431 0__3__4__5__7__9__11;
#X obj 23 457 expr if($f1 == 4 \, $f1-$f2 \, $f1);
#X text 244 457 0__2__3__5__7__9__11;
#X obj 23 481 expr if($f1 == 5 \, $f1+$f2 \, $f1);
#X obj 23 505 expr if($f1 == 7 \, $f1-$f2 \, $f1);
#X text 244 506 0__2__4__5__6__9__11;
#X text 244 481 0__2__4__6__7__9__11;
#X text 244 530 0__2__4__5__8__9__11;
#X obj 23 529 expr if($f1 == 7 \, $f1+$f2 \, $f1);
#X text 244 555 0__2__4__5__7__8__11;
#X obj 23 554 expr if($f1 == 9 \, $f1+$f2 \, $f1);
#X obj 505 126 sel 1;
#X msg 505 154 0;
#X obj 666 261 sel 1;
#X msg 666 286 0;
#X obj 23 578 expr if($f1 == 9 \, $f1+$f2 \, $f1);
#X text 244 579 0__2__4__5__7__10__11;
#X obj 566 87 sel 1;
#X msg 566 112 0;
#X obj 684 101 sel 1;
#X msg 684 126 0;
#X obj 740 171 sel 1;
#X msg 740 195 0;
#X obj 769 232 sel 1;
#X msg 769 257 0;
#X obj 23 602 expr if($f1 == 11 \, $f1-$f2 \, $f1);
#X obj 23 626 expr if($f1 == 11 \, $f1+$f2 \, $f1);
#X text 252 603 0__2__4__5__7__9__10;
#X text 253 626 0__2__4__5__7__9__12;
#X obj 23 31 inlet;
#X obj 398 723 outlet;
#X obj 543 427 r \$0-tonalcentre;
#X obj 563 534 r \$0-octaves;
#X obj 482 198 tgl 15 0 empty \$0-b3 b3 0 -7 0 10 -262144 -1 -1 0 1
;
#X obj 518 198 tgl 15 0 empty \$0-s4 s4 0 -7 0 10 -262144 -1 -1 0 1
;
#X obj 553 198 tgl 15 0 empty \$0-b5 b5 0 -7 0 10 -262144 -1 -1 0 1
;
#X obj 584 198 tgl 15 0 empty \$0-s5 s5 0 -7 0 10 -262144 -1 -1 0 1
;
#X obj 615 198 tgl 15 0 empty \$0-b6 b6 0 -7 0 10 -262144 -1 -1 0 1
;
#X obj 645 198 tgl 15 0 empty \$0-s6 s6 0 -7 0 10 -262144 -1 -1 0 1
;
#X obj 675 198 tgl 15 0 empty \$0-b7 b7 0 -7 0 10 -262144 -1 -1 0 1
;
#X obj 701 198 tgl 15 0 empty \$0-s7 s7 0 -7 0 10 -262144 -1 -1 0 1
;
#X obj 415 125 s \$0-b20;
#X obj 546 151 s \$0-b50;
#X obj 603 113 s \$0-b60;
#X obj 774 196 s \$0-b70;
#X text 34 182 scale:;
#X obj 357 153 s \$0-s20;
#X obj 719 125 s \$0-s60;
#X obj 805 258 s \$0-s70;
#X obj 700 285 s \$0-s50;
#X floatatom 94 93 5 0 0 0 - - -;
#X obj 23 144 - 1;
#X obj 398 699 + 60;
#X connect 0 0 16 1;
#X connect 0 0 21 0;
#X connect 2 0 78 1;
#X connect 3 0 9 0;
#X connect 4 0 2 0;
#X connect 5 0 7 0;
#X connect 5 1 4 1;
#X connect 6 0 8 0;
#X connect 7 0 4 0;
#X connect 8 0 5 0;
#X connect 9 0 10 0;
#X connect 10 0 11 0;
#X connect 11 0 16 0;
#X connect 13 0 14 1;
#X connect 14 0 78 0;
#X connect 16 0 18 0;
#X connect 17 0 19 0;
#X connect 17 0 18 1;
#X connect 18 0 27 0;
#X connect 19 0 20 0;
#X connect 20 0 67 0;
#X connect 21 0 22 0;
#X connect 22 0 72 0;
#X connect 27 0 29 0;
#X connect 29 0 30 0;
#X connect 30 0 34 0;
#X connect 34 0 36 0;
#X connect 36 0 41 0;
#X connect 37 0 38 0;
#X connect 38 0 68 0;
#X connect 39 0 40 0;
#X connect 40 0 75 0;
#X connect 41 0 51 0;
#X connect 43 0 44 0;
#X connect 44 0 69 0;
#X connect 45 0 46 0;
#X connect 46 0 73 0;
#X connect 47 0 48 0;
#X connect 48 0 70 0;
#X connect 49 0 50 0;
#X connect 50 0 74 0;
#X connect 51 0 52 0;
#X connect 52 0 14 0;
#X connect 55 0 76 0;
#X connect 55 0 77 0;
#X connect 57 0 13 0;
#X connect 58 0 6 0;
#X connect 59 0 27 1;
#X connect 60 0 29 1;
#X connect 61 0 30 1;
#X connect 61 0 39 0;
#X connect 62 0 34 1;
#X connect 62 0 37 0;
#X connect 63 0 36 1;
#X connect 63 0 45 0;
#X connect 64 0 41 1;
#X connect 64 0 43 0;
#X connect 65 0 49 0;
#X connect 65 0 51 1;
#X connect 66 0 47 0;
#X connect 66 0 52 1;
#X connect 77 0 3 0;
#X connect 78 0 56 0;
#X restore 1138 649 pd harmonydeterminer;
#X floatatom 1138 674 5 0 0 0 - - -;
#X obj 1120 488 * 1000;
#X obj 402 600 t b b;
#X obj 631 599 t b b;
#X obj 857 603 t b b;
#X obj 920 647 f;
#X obj 920 671 + 1;
#X obj 920 695 sel 1;
#X obj 700 637 f;
#X obj 700 661 + 1;
#X obj 700 685 sel 1;
#X obj 470 637 f;
#X obj 470 661 + 1;
#X obj 470 685 sel 1;
#X obj 801 693 f;
#X obj 801 718 + 1;
#X obj 801 741 sel 3;
#X msg 883 730 1;
#X obj 1138 700 s \$0-multioscnotes;
#N canvas -8 -8 1366 685 multi-osc 0;
#X floatatom 155 142 5 0 0 0 Decay_Time #0-multioscdecay -;
#N canvas 674 233 450 300 multi-oscillator 0;
#X obj 107 217 *~;
#X obj 107 142 t f b;
#N canvas 704 98 450 300 envelope 0;
#X msg 193 127 1 5;
#X obj 193 162 line~;
#X obj 236 133 pack 0 500;
#X obj 236 107 del 50;
#X obj 193 48 inlet;
#X obj 192 245 outlet~;
#X obj 314 97 inlet;
#X obj 192 193 *~;
#X obj 192 219 *~;
#X connect 0 0 1 0;
#X connect 1 0 7 0;
#X connect 1 0 7 1;
#X connect 2 0 1 0;
#X connect 3 0 2 0;
#X connect 4 0 0 0;
#X connect 4 0 3 0;
#X connect 6 0 2 1;
#X connect 7 0 8 0;
#X connect 7 0 8 1;
#X connect 8 0 5 0;
#X restore 281 151 pd envelope;
#X obj 358 118 inlet;
#X obj 107 243 outlet~;
#X obj 105 112 inlet;
#X floatatom 151 219 5 0 0 0 - - -;
#N canvas 97 142 450 300 oscs 0;
#X obj 70 120 osc~;
#X obj 150 137 osc~;
#X obj 156 109 * 1.015;
#X obj 231 137 osc~;
#X obj 237 109 * 0.503;
#X obj 302 141 osc~;
#X obj 302 167 *~ 0.5;
#X obj 308 113 * 1.496;
#X obj 377 143 osc~;
#X obj 383 115 * 2.01;
#X obj 377 169 *~ 0.25;
#X obj 70 56 inlet;
#X obj 74 240 outlet~;
#X connect 0 0 12 0;
#X connect 1 0 12 0;
#X connect 2 0 1 0;
#X connect 3 0 12 0;
#X connect 4 0 3 0;
#X connect 5 0 6 0;
#X connect 6 0 12 0;
#X connect 7 0 5 0;
#X connect 8 0 10 0;
#X connect 9 0 8 0;
#X connect 10 0 12 0;
#X connect 11 0 0 0;
#X connect 11 0 2 0;
#X connect 11 0 9 0;
#X connect 11 0 7 0;
#X connect 11 0 4 0;
#X restore 107 183 pd oscs;
#X connect 0 0 4 0;
#X connect 1 0 7 0;
#X connect 1 1 2 0;
#X connect 2 0 0 1;
#X connect 3 0 2 1;
#X connect 5 0 1 0;
#X connect 6 0 0 1;
#X connect 7 0 0 0;
#X restore 36 231 pd multi-oscillator;
#X obj 431 117 * 0.5;
#X obj 236 86 * 2;
#X obj 134 43 spigot;
#X obj 306 94 spigot;
#X obj 190 44 tgl 15 0 empty \$0-chord1 empty 17 7 0 10 -262144 -1
-1 0 1;
#X obj 362 93 tgl 15 0 empty \$0-chord2 empty 17 7 0 10 -262144 -1
-1 0 1;
#N canvas 674 233 450 300 multi-oscillator 0;
#X obj 107 217 *~;
#X obj 107 142 t f b;
#N canvas 704 98 450 300 envelope 0;
#X msg 193 127 1 5;
#X obj 193 162 line~;
#X obj 236 133 pack 0 500;
#X obj 236 107 del 50;
#X obj 193 48 inlet;
#X obj 192 245 outlet~;
#X obj 314 97 inlet;
#X obj 192 193 *~;
#X obj 192 219 *~;
#X connect 0 0 1 0;
#X connect 1 0 7 0;
#X connect 1 0 7 1;
#X connect 2 0 1 0;
#X connect 3 0 2 0;
#X connect 4 0 0 0;
#X connect 4 0 3 0;
#X connect 6 0 2 1;
#X connect 7 0 8 0;
#X connect 7 0 8 1;
#X connect 8 0 5 0;
#X restore 281 151 pd envelope;
#X obj 358 118 inlet;
#X obj 107 243 outlet~;
#X obj 105 112 inlet;
#X floatatom 151 219 5 0 0 0 - - -;
#N canvas 97 142 450 300 oscs 0;
#X obj 70 120 osc~;
#X obj 150 137 osc~;
#X obj 156 109 * 1.015;
#X obj 231 137 osc~;
#X obj 237 109 * 0.503;
#X obj 302 141 osc~;
#X obj 302 167 *~ 0.5;
#X obj 308 113 * 1.496;
#X obj 377 143 osc~;
#X obj 383 115 * 2.01;
#X obj 377 169 *~ 0.25;
#X obj 70 56 inlet;
#X obj 74 240 outlet~;
#X connect 0 0 12 0;
#X connect 1 0 12 0;
#X connect 2 0 1 0;
#X connect 3 0 12 0;
#X connect 4 0 3 0;
#X connect 5 0 6 0;
#X connect 6 0 12 0;
#X connect 7 0 5 0;
#X connect 8 0 10 0;
#X connect 9 0 8 0;
#X connect 10 0 12 0;
#X connect 11 0 0 0;
#X connect 11 0 2 0;
#X connect 11 0 9 0;
#X connect 11 0 7 0;
#X connect 11 0 4 0;
#X restore 107 183 pd oscs;
#X connect 0 0 4 0;
#X connect 1 0 7 0;
#X connect 1 1 2 0;
#X connect 2 0 0 1;
#X connect 3 0 2 1;
#X connect 5 0 1 0;
#X connect 6 0 0 1;
#X connect 7 0 0 0;
#X restore 210 234 pd multi-oscillator;
#N canvas 674 233 450 300 multi-oscillator 0;
#X obj 107 217 *~;
#X obj 107 142 t f b;
#N canvas 704 98 450 300 envelope 0;
#X msg 193 127 1 5;
#X obj 193 162 line~;
#X obj 236 133 pack 0 500;
#X obj 236 107 del 50;
#X obj 193 48 inlet;
#X obj 192 245 outlet~;
#X obj 314 97 inlet;
#X obj 192 193 *~;
#X obj 192 219 *~;
#X connect 0 0 1 0;
#X connect 1 0 7 0;
#X connect 1 0 7 1;
#X connect 2 0 1 0;
#X connect 3 0 2 0;
#X connect 4 0 0 0;
#X connect 4 0 3 0;
#X connect 6 0 2 1;
#X connect 7 0 8 0;
#X connect 7 0 8 1;
#X connect 8 0 5 0;
#X restore 281 151 pd envelope;
#X obj 358 118 inlet;
#X obj 107 243 outlet~;
#X obj 105 112 inlet;
#X floatatom 151 219 5 0 0 0 - - -;
#N canvas 97 142 450 300 oscs 0;
#X obj 70 120 osc~;
#X obj 150 137 osc~;
#X obj 156 109 * 1.015;
#X obj 231 137 osc~;
#X obj 237 109 * 0.503;
#X obj 302 141 osc~;
#X obj 302 167 *~ 0.5;
#X obj 308 113 * 1.496;
#X obj 377 143 osc~;
#X obj 383 115 * 2.01;
#X obj 377 169 *~ 0.25;
#X obj 70 56 inlet;
#X obj 74 240 outlet~;
#X connect 0 0 12 0;
#X connect 1 0 12 0;
#X connect 2 0 1 0;
#X connect 3 0 12 0;
#X connect 4 0 3 0;
#X connect 5 0 6 0;
#X connect 6 0 12 0;
#X connect 7 0 5 0;
#X connect 8 0 10 0;
#X connect 9 0 8 0;
#X connect 10 0 12 0;
#X connect 11 0 0 0;
#X connect 11 0 2 0;
#X connect 11 0 9 0;
#X connect 11 0 7 0;
#X connect 11 0 4 0;
#X restore 107 183 pd oscs;
#X connect 0 0 4 0;
#X connect 1 0 7 0;
#X connect 1 1 2 0;
#X connect 2 0 0 1;
#X connect 3 0 2 1;
#X connect 5 0 1 0;
#X connect 6 0 0 1;
#X connect 7 0 0 0;
#X restore 363 235 pd multi-oscillator;
#X obj 40 96 mtof;
#X obj 646 424 tgl 15 0 \$0-chord1 empty Open/Close_Chord_1 17 7 0
10 -262144 -1 -1 0 1;
#X obj 595 551 tgl 15 0 \$0-chord2 empty Open/Close_Chord_2 17 7 0
10 -262144 -1 -1 0 1;
#X obj 131 327 hsl 128 15 0 1 0 0 empty empty Velocities:_0_-_1 -2
21 0 10 -262144 -1 -1 0 1;
#X obj 332 501 * 27.39;
#X msg 811 368 0;
#X msg 774 368 1;
#X msg 645 492 0;
#X msg 608 492 1;
#X obj 448 264 t f f;
#X floatatom 487 320 5 0 0 0 - - -;
#X obj 487 294 > 0;
#X obj 399 312 spigot;
#X floatatom 413 359 5 0 0 0 - - -;
#X obj 138 719 *~ 0;
#X obj 37 723 *~ 1;
#X msg 99 657 1;
#X msg 143 657 0;
#X obj 142 619 t b;
#X msg 242 666 1;
#X msg 282 668 0;
#X obj 260 619 t b;
#X obj 203 590 route 0 1;
#X obj 63 641 *~;
#X obj 74 596 osc~ 5;
#X obj 36 836 dac~;
#X obj 203 548 tgl 15 0 empty empty Wah-wah_On/Off 17 7 0 10 -262144
-1 -1 0 1;
#X obj 159 740 hsl 128 15 0 1 0 0 empty \$0-multioscvolume Volume:_0_-_0.04
-2 21 0 10 -262144 -1 -1 0 1;
#X obj 400 508 vsl 15 40 0 54.78 0 0 empty \$0-multioscdecaymultiplier
Multi_Oscillator_Decay_Time 0 -9 0 10 -262144 -1 -1 0 1;
#X floatatom 332 527 5 0 0 0 - - multioscdecay;
#X obj 606 381 vsl 15 40 0 100 0 0 empty \$0-chord1likelihood Chord_One_Likelihood
0 -9 0 10 -262144 -1 -1 0 1;
#X obj 770 259 vsl 15 40 0 100 0 0 empty \$0-chord2likelihood Chord_Two_Likelihood
0 -9 0 10 -262144 -1 -1 0 1;
#X obj 37 762 *~;
#X obj 36 799 *~ 2;
#X floatatom 40 29 5 0 0 0 - - -;
#X obj 36 140 t f;
#X obj 37 316 *~ 1;
#X obj 156 798 vline~;
#X msg 156 773 \$1 5;
#X obj 570 184 bang;
#X obj 570 208 random 100;
#X floatatom 570 232 5 0 0 0 - - -;
#X obj 105 389 vline~;
#X msg 105 364 \$1 5;
#X obj 555 438 moses 0;
#X obj 721 313 moses 0;
#X msg 542 653 0;
#X msg 505 653 1;
#X obj 452 599 moses 0;
#X obj 493 539 vsl 15 40 0 100 0 0 empty \$0-multioscwahwah Wah-Wah_Likelihood
0 -9 0 10 -262144 -1 -1 0 1;
#X obj 32 3 r \$0-multioscnotes;
#X obj 179 390 r \$0-multioscvelocity;
#X obj 38 466 *~;
#X obj 164 428 / 127;
#X floatatom 19 263 5 0 0 0 - - -;
#X obj 169 829 snapshot~;
#X floatatom 169 853 5 0 0 0 - - -;
#X obj 243 788 bng 15 250 50 0 empty empty empty 17 7 0 10 -262144
-1 -1;
#X msg 233 698 0.04;
#X obj 570 160 r \$0-multioscnotes;
#X obj 164 365 / 7;
#X connect 0 0 1 1;
#X connect 0 0 8 1;
#X connect 0 0 9 1;
#X connect 1 0 46 0;
#X connect 2 0 9 0;
#X connect 3 0 8 0;
#X connect 4 0 3 0;
#X connect 5 0 2 0;
#X connect 6 0 4 1;
#X connect 7 0 5 1;
#X connect 8 0 46 0;
#X connect 9 0 46 0;
#X connect 10 0 64 0;
#X connect 10 0 45 0;
#X connect 13 0 53 0;
#X connect 14 0 39 0;
#X connect 15 0 11 0;
#X connect 16 0 11 0;
#X connect 17 0 12 0;
#X connect 18 0 12 0;
#X connect 19 0 22 0;
#X connect 19 1 21 0;
#X connect 20 0 22 1;
#X connect 21 0 20 0;
#X connect 22 0 23 0;
#X connect 23 0 14 0;
#X connect 23 0 54 0;
#X connect 23 0 55 0;
#X connect 23 0 58 0;
#X connect 24 0 42 0;
#X connect 25 0 42 0;
#X connect 26 0 25 1;
#X connect 27 0 24 1;
#X connect 28 0 26 0;
#X connect 28 0 27 0;
#X connect 29 0 24 1;
#X connect 30 0 25 1;
#X connect 31 0 30 0;
#X connect 31 0 29 0;
#X connect 32 0 28 0;
#X connect 32 1 31 0;
#X connect 33 0 24 0;
#X connect 34 0 33 1;
#X connect 36 0 32 0;
#X connect 37 0 48 0;
#X connect 38 0 14 1;
#X connect 40 0 54 1;
#X connect 41 0 55 1;
#X connect 42 0 43 0;
#X connect 43 0 35 0;
#X connect 43 0 35 1;
#X connect 44 0 10 0;
#X connect 45 0 1 0;
#X connect 45 0 4 0;
#X connect 45 0 5 0;
#X connect 46 0 62 0;
#X connect 47 0 42 1;
#X connect 47 0 65 0;
#X connect 48 0 47 0;
#X connect 49 0 50 0;
#X connect 50 0 51 0;
#X connect 51 0 19 0;
#X connect 52 0 62 1;
#X connect 53 0 52 0;
#X connect 54 0 18 0;
#X connect 54 1 17 0;
#X connect 55 0 16 0;
#X connect 55 1 15 0;
#X connect 56 0 36 0;
#X connect 57 0 36 0;
#X connect 58 0 57 0;
#X connect 58 1 56 0;
#X connect 59 0 58 1;
#X connect 60 0 44 0;
#X connect 61 0 63 0;
#X connect 62 0 33 0;
#X connect 62 0 25 0;
#X connect 63 0 70 0;
#X connect 65 0 66 0;
#X connect 67 0 65 0;
#X connect 68 0 37 0;
#X connect 69 0 49 0;
#X connect 70 0 13 0;
#X restore 187 246 pd multi-osc;
#X msg 1418 402 message;
#X obj 1418 426 print \$0-multiosc;
#X obj 1419 491 print \$1-argument;
#X obj 1419 461 r message;
#X obj 239 81 s \$0-chord1likelihood;
#X obj 225 15 r \$0-chord1likelihoodr;
#X obj 1057 52 r \$0-chord2likelihoodr;
#X obj 1058 85 s \$0-chord2likelihood;
#X obj 1060 134 r \$0-multioscwahwahc;
#X obj 1057 166 s \$0-multioscwahwah;
#X obj 111 189 s \$0-multioscnotes;
#X obj 149 217 s \$0-multioscvelocity;
#X obj 56 277 r \$0-multioscdecaymultiplierr;
#X obj 135 317 s \$0-multioscdecaymultiplier;
#X obj 966 671 s \$0-multioscvelocity;
#X obj 182 468 declare -path else;
#X obj 410 507 display;
#X obj 638 507 display;
#X obj 855 507 display;
#X obj 855 580 tgl 15 0 empty empty Note_Pattern_in_Motion_(On/Off)
0 -5 0 10 -262144 -1 -1 0 1;
#X obj 174 365 table \$1-MOnotes;
#X obj 194 395 table \$1-MOvelocity;
#X obj 218 427 table \$1-MOdurations;
#X obj 1146 537 tabread \$1-MOdurations;
#X obj 1146 567 r \$1-MOmod;
#X obj 1138 619 tabread \$1-MOnotes;
#X obj 964 622 tabread \$1-MOvelocity;
#X floatatom 1252 578 5 0 0 0 - - -;
#X floatatom 1146 591 5 0 0 0 - - -;
#X obj 1065 604 bng 15 250 50 0 empty empty empty 17 7 0 10 -262144
-1 -1;
#X floatatom 1299 629 5 0 0 0 - - -;
#X obj 1074 717 sel 0;
#X obj 464 578 bng 15 250 50 0 empty empty Sequence_Start/Finish 17
7 0 10 -262144 -1 -1;
#X msg 1100 208 listen 4242;
#X obj 1112 278 netreceive 4242;
#X obj 1112 319 route chord1likelihood chord2likelihood multioscdecaytime
multioscwahwah multioscvolume MOdurations MOvelocities MOnotes;
#X obj 1328 204 route myMessage2 banana;
#X msg 1328 228 symbol myMessage2;
#X msg 1409 248 symbol banana;
#X obj 1112 402 + 1;
#X obj 1161 401 + 1;
#X obj 1112 370 f;
#X obj 1161 370 f;
#X obj 1310 370 f;
#X obj 1260 400 + 1;
#X obj 1260 370 f;
#X msg 1223 427 4500;
#X obj 1223 451 / 100;
#X floatatom 1223 475 5 0 0 0 - - -;
#X msg 1318 444 0;
#X obj 1310 401 + 0.01;
#X obj 1211 400 + 45;
#X obj 1211 369 4500;
#X msg 1271 445 4500;
#X floatatom 409 181 5 0 0 0 - - -;
#X floatatom 427 114 5 0 0 0 - - -;
#X floatatom 512 124 5 0 0 0 - - -;
#X floatatom 516 60 5 0 0 0 - - -;
#X floatatom 432 54 5 0 0 0 - - -;
#X symbolatom 610 91 10 0 0 0 - - -;
#X symbolatom 690 111 10 0 0 0 - - -;
#X connect 1 0 118 0;
#X connect 1 0 160 0;
#X connect 2 0 109 0;
#X connect 2 0 163 0;
#X connect 3 0 112 0;
#X connect 3 0 162 0;
#X connect 4 0 159 0;
#X connect 5 0 115 0;
#X connect 6 0 116 0;
#X connect 7 0 5 0;
#X connect 7 1 6 0;
#X connect 8 0 9 0;
#X connect 9 0 7 0;
#X connect 10 0 9 1;
#X connect 11 0 114 0;
#X connect 11 0 161 0;
#X connect 13 0 14 0;
#X connect 14 0 15 0;
#X connect 15 0 16 0;
#X connect 16 0 15 1;
#X connect 16 0 17 0;
#X connect 17 0 128 0;
#X connect 17 0 130 0;
#X connect 17 0 131 0;
#X connect 17 0 134 0;
#X connect 17 0 136 0;
#X connect 18 0 119 0;
#X connect 19 0 14 1;
#X connect 20 0 33 0;
#X connect 21 0 88 0;
#X connect 22 0 33 2;
#X connect 23 0 34 0;
#X connect 24 0 89 0;
#X connect 25 0 34 2;
#X connect 26 0 27 0;
#X connect 27 0 32 0;
#X connect 27 1 22 0;
#X connect 27 2 25 0;
#X connect 27 3 28 0;
#X connect 29 0 121 0;
#X connect 30 0 29 0;
#X connect 31 0 87 0;
#X connect 32 0 29 2;
#X connect 33 0 122 0;
#X connect 34 0 123 0;
#X connect 43 0 82 0;
#X connect 44 0 82 4;
#X connect 45 0 82 7;
#X connect 46 0 82 9;
#X connect 47 0 82 11;
#X connect 48 0 82 2;
#X connect 49 0 82 5;
#X connect 51 0 82 1;
#X connect 52 0 82 3;
#X connect 53 0 82 6;
#X connect 54 0 82 8;
#X connect 55 0 82 10;
#X connect 57 0 83 0;
#X connect 58 0 83 1;
#X connect 59 0 83 2;
#X connect 60 0 83 3;
#X connect 61 0 83 4;
#X connect 62 0 83 5;
#X connect 63 0 83 6;
#X connect 64 0 83 7;
#X connect 65 0 83 8;
#X connect 66 0 83 9;
#X connect 67 0 83 10;
#X connect 84 0 85 0;
#X connect 85 0 103 0;
#X connect 86 0 19 0;
#X connect 87 0 29 1;
#X connect 87 1 96 0;
#X connect 88 0 33 1;
#X connect 88 1 93 0;
#X connect 89 0 34 1;
#X connect 89 1 90 0;
#X connect 90 0 91 0;
#X connect 91 0 92 0;
#X connect 91 0 90 1;
#X connect 92 0 99 0;
#X connect 93 0 94 0;
#X connect 94 0 95 0;
#X connect 94 0 93 1;
#X connect 95 0 99 0;
#X connect 96 0 97 0;
#X connect 97 0 98 0;
#X connect 97 0 96 1;
#X connect 98 0 99 0;
#X connect 99 0 100 0;
#X connect 100 0 101 0;
#X connect 100 0 99 1;
#X connect 101 0 102 0;
#X connect 102 0 13 0;
#X connect 102 0 124 0;
#X connect 105 0 106 0;
#X connect 108 0 107 0;
#X connect 110 0 2 0;
#X connect 111 0 3 0;
#X connect 113 0 11 0;
#X connect 117 0 1 0;
#X connect 128 0 86 0;
#X connect 128 0 132 0;
#X connect 129 0 17 1;
#X connect 129 0 133 0;
#X connect 130 0 84 0;
#X connect 130 0 135 0;
#X connect 131 0 18 0;
#X connect 136 0 137 0;
#X connect 138 0 139 0;
#X connect 139 0 140 0;
#X connect 139 0 141 0;
#X connect 140 0 146 0;
#X connect 140 1 147 0;
#X connect 140 2 157 0;
#X connect 140 3 150 0;
#X connect 140 4 148 0;
#X connect 140 5 30 0;
#X connect 140 6 20 0;
#X connect 140 7 23 0;
#X connect 141 0 142 0;
#X connect 141 1 143 0;
#X connect 142 0 164 0;
#X connect 143 0 165 0;
#X connect 144 0 2 0;
#X connect 144 0 146 1;
#X connect 145 0 3 0;
#X connect 145 0 147 1;
#X connect 146 0 144 0;
#X connect 147 0 145 0;
#X connect 148 0 155 0;
#X connect 149 0 11 0;
#X connect 149 0 150 1;
#X connect 150 0 149 0;
#X connect 151 0 152 0;
#X connect 152 0 153 0;
#X connect 154 0 146 1;
#X connect 154 0 147 1;
#X connect 154 0 150 1;
#X connect 154 0 148 1;
#X connect 154 0 158 0;
#X connect 155 0 4 0;
#X connect 155 0 148 1;
#X connect 156 0 1 0;
#X connect 156 0 157 1;
#X connect 157 0 156 0;
#X connect 158 0 157 1;
#X coords 0 -1 1 1 200 200 1 400 0;
